<svg t="1648278964106" class="icon" viewBox="0 0 1024 1024" version="1.1" xmlns="http://www.w3.org/2000/svg" p-id="1752" width="200" height="200"><path d="M169.607158 516.323824s-28.478046-221.801895-4.233745-296.130495c14.56717-44.705255 34.654938-74.457285 79.617564-73.144695 73.505014 2.136175 202.717873 201.598311 202.717873 201.598311L186.77377 521.394023z" fill="#647471" p-id="1753"></path><path d="M187.828989 528.407369l-24.064141-7.103426-0.540478-4.156533c-1.171036-9.123784-28.375097-224.105361-3.976374-298.948702 12.791314-39.223264 33.033503-79.064217 85.92314-77.584336 32.428683 0.939402 77.404177 35.903184 133.703974 103.926207a1228.416518 1228.416518 0 0 1 74.251389 100.606127l3.461633 5.353307z m-12.353784-17.063664l10.29482 3.024104 253.033805-167.535326c-9.445497-14.155377-36.894061-54.292307-69.914695-94.171865-53.04406-64.072385-95.947722-98.367004-124.091186-99.177722-36.263503-1.068088-56.853143 18.208963-73.350592 68.705055-21.670596 66.633222 0.308845 258.374243 4.027848 289.155754z" fill="#283330" p-id="1754"></path><path d="M870.298339 516.323824s28.478046-221.801895 4.246613-296.130495c-14.580039-44.705255-34.667806-74.457285-79.617564-73.144695-73.517883 2.136175-202.74361 201.598311-202.743609 201.598311l260.947947 172.747078z" fill="#647471" p-id="1755"></path><path d="M852.076507 528.407369l-2.496493-1.647171-266.249781-176.298791 3.461634-5.353306A1222.908789 1222.908789 0 0 1 661.030387 244.501973c56.299796-68.023023 101.288159-102.948199 133.703973-103.926207 52.966848-1.518486 73.131827 38.361073 85.923141 77.584337 24.450197 74.843341-2.805338 289.824918-3.976374 298.948701l-0.52761 4.156534z m-250.936235-181.574886l253.046673 167.535326 10.29482-3.024104c3.719004-30.730037 25.73705-222.625481 3.989243-289.155754-16.510317-50.470355-37.099957-69.773142-73.311986-68.705055-28.143464 0.810717-71.047126 35.105336-124.091186 99.177722-33.05924 39.879559-60.520673 80.042225-69.96617 94.171865z" fill="#283330" p-id="1756"></path><path d="M892.380727 609.852263c0 86.425013-28.928444 135.338276-103.334255 189.424687-66.247166 48.15402-172.219469 59.800035-269.093724 59.800035-106.744414 0-219.086636-19.598763-286.968105-76.747883-62.939955-52.966848-81.367683-105.792143-81.367683-184.380224 0-163.353055 162.658155-330.463719 368.348657-330.46372s372.41511 179.01405 372.41511 342.367105z" fill="#647471" p-id="1757"></path><path d="M519.952748 865.511247c-58.79629 0-112.483776-5.765099-159.569708-17.128006-54.807048-13.215975-99.087642-33.792746-131.55493-61.138362-32.01689-26.933823-53.005454-53.944856-66.079876-85.009475-11.993465-28.503783-17.578405-61.653103-17.578405-104.235052 0-81.959635 39.763742-166.235605 109.073617-231.18305a391.975268 391.975268 0 0 1 118.930907-76.567723 383.121723 383.121723 0 0 1 146.778395-29.147209 368.760449 368.760449 0 0 1 147.52477 31.051751 404.290447 404.290447 0 0 1 120.294971 80.685651c33.960037 32.827607 62.02629 71.523261 81.161786 111.956166 19.547289 41.243622 29.880715 84.520472 29.880715 125.159274 0 44.808204-7.798326 79.784854-24.566014 109.961545-16.407369 29.597607-41.513861 55.65637-81.419157 84.674894-56.505693 40.960515-145.761781 60.919597-272.877071 60.919596z m0-591.591826c-95.304295 0-186.593611 36.314977-256.907231 102.24043-66.73617 62.528162-105.007163 143.368236-105.007163 221.789027 0 82.358559 21.426094 130.950109 79.077086 179.451579s158.089828 75.242265 282.837308 75.242265c124.30995 0 211.043808-19.161234 265.310378-58.564656 74.341468-54.047805 100.683339-102.24043 100.683339-184.225803 0-77.790233-40.033981-162.954131-107.117601-227.77289-72.102345-69.760273-164.035087-108.159952-258.876116-108.159952z" fill="#283330" p-id="1758"></path><path d="M516.735617 428.328851a117.42529 117.42529 0 0 1-5.031593-23.536532 199.886797 199.886797 0 0 1 0-47.060195 116.614573 116.614573 0 0 1 5.05733-23.536532 117.541106 117.541106 0 0 1 5.070199 23.536532 201.739865 201.739865 0 0 1 0 47.060195 117.463895 117.463895 0 0 1-5.095936 23.536532zM586.959158 381.255787a48.2441 48.2441 0 0 1 0.527609 15.056174 71.343102 71.343102 0 0 1-2.959761 13.949481 70.468042 70.468042 0 0 1-5.559202 13.113027 47.201749 47.201749 0 0 1-9.110916 12.006334 47.870913 47.870913 0 0 1-0.540478-15.056174 73.350592 73.350592 0 0 1 8.583306-27.023903 47.973861 47.973861 0 0 1 9.059442-12.044939zM615.591625 452.495941a67.482545 67.482545 0 0 1 7.721115-16.201473 105.521904 105.521904 0 0 1 10.436374-13.769322 103.37286 103.37286 0 0 1 12.495338-11.916254 65.758162 65.758162 0 0 1 15.236333-9.471234 65.809636 65.809636 0 0 1-7.721115 16.201473 101.494056 101.494056 0 0 1-10.449242 13.756453 104.453817 104.453817 0 0 1-12.508206 11.916254 66.517405 66.517405 0 0 1-15.210597 9.484103zM661.467917 469.611079a25.865735 25.865735 0 0 1 4.169402-9.741473 32.338603 32.338603 0 0 1 14.605775-11.581673 25.634102 25.634102 0 0 1 10.449243-1.82733 25.608365 25.608365 0 0 1-4.156534 9.76721 31.566492 31.566492 0 0 1-6.434262 6.858924 32.171312 32.171312 0 0 1-8.158645 4.70988 25.73705 25.73705 0 0 1-10.474979 1.814462zM690.692337 501.846734a38.682786 38.682786 0 0 1 10.397768-8.493227 55.21884 55.21884 0 0 1 11.478724-5.018724 54.356649 54.356649 0 0 1 12.30231-2.367809 38.20665 38.20665 0 0 1 13.383266 1.158167 38.258125 38.258125 0 0 1-10.397768 8.506095 53.790434 53.790434 0 0 1-11.478725 4.992988 54.61402 54.61402 0 0 1-12.302309 2.35494 38.747128 38.747128 0 0 1-13.383266-1.13243zM446.524945 381.255787a48.282705 48.282705 0 0 1 9.085179 12.019202 73.003142 73.003142 0 0 1 8.570437 27.023903 47.124538 47.124538 0 0 1-0.540478 15.056174 47.446251 47.446251 0 0 1-9.098047-12.006334 70.519516 70.519516 0 0 1-5.546334-13.08729 72.269636 72.269636 0 0 1-2.946892-13.949481 48.2441 48.2441 0 0 1 0.476135-15.056174zM417.879609 452.495941a66.144218 66.144218 0 0 1-15.210597-9.484103 108.095609 108.095609 0 0 1-22.957448-25.672707 66.73617 66.73617 0 0 1-7.721115-16.201473 65.629477 65.629477 0 0 1 15.236334 9.471234 107.272024 107.272024 0 0 1 22.918842 25.73705 66.517405 66.517405 0 0 1 7.733984 16.149999zM372.003318 469.611079a25.64697 25.64697 0 0 1-10.436374-1.827331 31.720914 31.720914 0 0 1-8.158645-4.70988 31.257647 31.257647 0 0 1-6.434262-6.858923 25.608365 25.608365 0 0 1-4.156534-9.767211 25.634102 25.634102 0 0 1 10.449242 1.827331 32.171312 32.171312 0 0 1 14.592908 11.581672 25.659839 25.659839 0 0 1 4.143665 9.754342zM342.791766 501.846734a38.772866 38.772866 0 0 1-13.383266 1.13243 54.472466 54.472466 0 0 1-12.30231-2.35494 53.507327 53.507327 0 0 1-11.478724-4.992988 38.258125 38.258125 0 0 1-10.397768-8.506095 38.20665 38.20665 0 0 1 13.383266-1.158167 54.485334 54.485334 0 0 1 12.30231 2.367809 55.514816 55.514816 0 0 1 11.478724 5.018724 38.682786 38.682786 0 0 1 10.397768 8.493227zM520.467489 722.168749a73.955413 73.955413 0 0 1 5.031594 18.196094 118.519114 118.519114 0 0 1 1.3898 18.157488 116.884812 116.884812 0 0 1-1.364063 18.183226 72.835851 72.835851 0 0 1-5.057331 18.183226 72.333978 72.333978 0 0 1-5.070198-18.183226 116.884812 116.884812 0 0 1-1.364064-18.183226 118.519114 118.519114 0 0 1 1.389801-18.183225 73.440672 73.440672 0 0 1 5.044461-18.170357zM590.678161 758.522331a33.535376 33.535376 0 0 1-9.007967-8.5447 45.374419 45.374419 0 0 1-5.572071-9.934501 44.821072 44.821072 0 0 1-3.011235-10.976852 33.213663 33.213663 0 0 1 0.411792-12.366652 33.007766 33.007766 0 0 1 9.007968 8.5447 44.422148 44.422148 0 0 1 5.546334 9.921633 45.631789 45.631789 0 0 1 2.998366 10.98972 33.728404 33.728404 0 0 1-0.373187 12.366652zM619.323498 703.496519a53.584538 53.584538 0 0 1 14.760198 6.125418 81.277603 81.277603 0 0 1 12.379521 8.866413 79.656169 79.656169 0 0 1 10.565059 10.963984 52.490713 52.490713 0 0 1 8.158644 13.730716 53.082665 53.082665 0 0 1-14.773066-6.086813 80.428281 80.428281 0 0 1-12.366653-8.89215 81.30334 81.30334 0 0 1-10.565059-10.976852 53.700354 53.700354 0 0 1-8.158644-13.730716zM665.18692 690.319149a23.240556 23.240556 0 0 1 9.94737 0.167291 27.023902 27.023902 0 0 1 8.02996 3.294343 26.547767 26.547767 0 0 1 6.588684 5.649282 22.777289 22.777289 0 0 1 4.658406 8.789203 23.047528 23.047528 0 0 1-9.947369-0.154423 27.358484 27.358484 0 0 1-14.605776-9.007967 23.008923 23.008923 0 0 1-4.671275-8.737729zM694.41134 665.36708a37.486013 37.486013 0 0 1 13.061553-2.058964 52.760952 52.760952 0 0 1 12.21223 1.492749 51.911629 51.911629 0 0 1 11.581673 4.169402 37.524619 37.524619 0 0 1 10.719481 7.721115 37.537487 37.537487 0 0 1-13.074421 2.071832 52.001709 52.001709 0 0 1-12.199362-1.505617 53.314299 53.314299 0 0 1-11.581672-4.195139 37.666172 37.666172 0 0 1-10.719482-7.695378zM450.282555 758.522331a33.728404 33.728404 0 0 1-0.386056-12.366652 45.631789 45.631789 0 0 1 2.998366-10.98972 44.936889 44.936889 0 0 1 5.546334-9.921633 33.007766 33.007766 0 0 1 9.007968-8.5447 33.213663 33.213663 0 0 1 0.411793 12.366652 44.821072 44.821072 0 0 1-3.011235 10.976852 45.374419 45.374419 0 0 1-5.572071 9.934501 33.535376 33.535376 0 0 1-8.995099 8.5447zM421.598613 703.496519a53.700354 53.700354 0 0 1-8.158645 13.730716 81.30334 81.30334 0 0 1-10.565059 10.976852 80.428281 80.428281 0 0 1-12.366653 8.89215 53.082665 53.082665 0 0 1-14.773066 6.086813 52.851032 52.851032 0 0 1 8.158645-13.743585 79.656169 79.656169 0 0 1 10.565059-10.963983 81.277603 81.277603 0 0 1 12.379521-8.866414 53.584538 53.584538 0 0 1 14.760198-6.112549zM375.73519 690.319149a23.008923 23.008923 0 0 1-4.671275 8.776334 27.229799 27.229799 0 0 1-14.605775 9.007968 23.047528 23.047528 0 0 1-9.94737 0.154422 22.777289 22.777289 0 0 1 4.684143-8.930756 26.547767 26.547767 0 0 1 6.588685-5.649283 27.023902 27.023902 0 0 1 8.029959-3.294342 23.240556 23.240556 0 0 1 9.921633-0.064343zM346.51077 665.36708a37.666172 37.666172 0 0 1-10.719481 7.721115 53.314299 53.314299 0 0 1-11.581673 4.195139 52.001709 52.001709 0 0 1-12.199361 1.505617 37.537487 37.537487 0 0 1-13.074422-2.071832 37.524619 37.524619 0 0 1 10.719482-7.721115 51.911629 51.911629 0 0 1 11.581672-4.169402 52.760952 52.760952 0 0 1 12.21223-1.492749 37.434539 37.434539 0 0 1 13.061553 2.033227z" fill="#4B5451" p-id="1759"></path><path d="M331.248699 594.114057m-74.740392 0a74.740393 74.740393 0 1 0 149.480785 0 74.740393 74.740393 0 1 0-149.480785 0Z" fill="#E8BE48" p-id="1760"></path><path d="M708.656797 594.114057m-74.740392 0a74.740393 74.740393 0 1 0 149.480785 0 74.740393 74.740393 0 1 0-149.480785 0Z" fill="#E8BE48" p-id="1761"></path></svg>
