<?xml version="1.0" standalone="no"?><!DOCTYPE svg PUBLIC "-//W3C//DTD SVG 1.1//EN" "http://www.w3.org/Graphics/SVG/1.1/DTD/svg11.dtd"><svg t="1644134572737" class="icon" viewBox="0 0 1024 1024" version="1.1" xmlns="http://www.w3.org/2000/svg" p-id="2077" xmlns:xlink="http://www.w3.org/1999/xlink" width="200" height="200"><defs><style type="text/css"></style></defs><path d="M959.7 510.9c0.1 249.4-197.1 448.3-444.6 448.3-252.5 0-450.8-197.8-450.4-449.3 0.4-247 200.6-446.1 448.3-445.7 248.2 0.4 446.6 198.8 446.7 446.7z" fill="#469BEB" p-id="2078"></path><path d="M255.1 414.6c-4.7 0-9.6-0.7-14.2 0.1-21.5 4.1-24.5-7.2-23.2-25.1 0.8-10.4 4.7-12.3 13.6-12 13.5 0.5 27.2 1.2 40.6-0.2 16-1.6 21 3.9 20.2 20-0.6 12.6-2.8 19.2-16.8 17.3-6.6-0.9-13.4-0.1-20.2-0.1zM769.3 414.6h-12.2c-25.3 0-27.5-2.9-24.4-27.5 0.9-7 3.2-9.4 9.9-9.3 17.6 0.2 35.2 0.5 52.8-0.1 15.5-0.5 10.8 10.8 10.7 18.3-0.1 7.5 5 19.2-10.5 18.7-8.7-0.4-17.5-0.2-26.3-0.1zM290.2 632.3c-5.4 0-10.8 0.1-16.2 0-16.8-0.1-26.4-17.2-18.4-32.5 1.9-3.7 4.9-4.2 8.2-4.2 18.3-0.1 36.6-0.1 54.9 0 15.7 0.1 9.1 12.2 9.5 19.4 0.4 6.8 4.7 17.6-9.5 17.3-9.6-0.2-19.1 0-28.5 0zM731.4 632.3c-5.4 0-10.8 0.1-16.2 0-16.8-0.1-26.4-17.2-18.4-32.5 1.9-3.7 4.9-4.2 8.2-4.2 18.3-0.1 36.6-0.1 54.9 0 15.7 0.1 9.1 12.2 9.5 19.4 0.4 6.8 4.7 17.6-9.5 17.3-9.5-0.2-19 0-28.5 0zM697.3 412.1c-15.9-78.1-86.1-138.2-167.4-143.6-82.5-5.5-158.1 44.2-185.7 122-27.1 76.3-1 163 67.4 206.9 26.3 16.9 40.5 33.3 32.5 58.9 0 17.7-0.4 29.9 0.1 42.2 0.7 18.5 28.6 55.8 44.5 54.9 25.4-1.4 52.7 10.7 75.8-13.6 14.1-14.8 27.7-27.1 26.8-49.4-0.7-18.3 0.8-36.8-0.5-55.1-0.9-13.5 4.1-20 15.9-26.5 72-39.6 106.9-116.8 90.6-196.7z m-33.1 46.7c-4.8 61.7-37.1 105.4-95.5 127.9-10.3 4-16.6 8.2-14.3 20 4.4 22-5.8 29-26.3 25.6-3.3-0.5-6.8-0.1-10.2-0.1-4.8 0-9.6-0.7-14.3 0.1-18.9 3.2-26-4.7-22.7-23.1 2.3-12.8-3.2-18.5-15.7-23.1-71.3-26.3-109.4-102.1-89.3-175.3 18.9-68.8 91.4-116 161.7-105.3 76.5 11.9 132.5 77.9 126.6 153.3z" fill="#FFFFFF" p-id="2079"></path></svg>